<?xml version="1.0" encoding="iso-8859-1"?>
<!-- Generator: Adobe Illustrator 19.0.0, SVG Export Plug-In . SVG Version: 6.00 Build 0)  -->
<svg version="1.1" id="Layer_1" xmlns="http://www.w3.org/2000/svg" xmlns:xlink="http://www.w3.org/1999/xlink" x="0px" y="0px"
	 viewBox="0 0 512 512" style="enable-background:new 0 0 512 512;" xml:space="preserve">
<circle style="fill:#FFCA28;" cx="256" cy="256" r="198.247"/>
<path style="fill:#FF9800;" d="M97.83,256c0-102.725,78.132-187.199,178.209-197.245c-6.59-0.661-13.275-1.003-20.039-1.003
	C146.51,57.752,57.752,146.511,57.752,256c0,109.49,88.758,198.248,198.248,198.248c6.764,0,13.449-0.342,20.039-1.003
	C175.961,443.2,97.83,358.725,97.83,256z"/>
<path style="fill:#EF495B;" d="M458.062,170.5H53.938c-8.485,0-15.363,6.878-15.363,15.363l0,0c0,8.485,6.878,15.363,15.363,15.363
	h44.776v24.599c0,33.45,27.117,60.567,60.567,60.567l0,0c33.45,0,60.567-27.117,60.567-60.567v-24.599h72.298v24.599
	c0,33.45,27.117,60.567,60.567,60.567l0,0c33.45,0,60.567-27.117,60.567-60.567v-24.599h44.776c8.485,0,15.363-6.878,15.363-15.363
	l0,0C473.425,177.378,466.546,170.5,458.062,170.5z"/>
<g>
	<path style="fill:#8FE5F7;" d="M159.283,261.343c-19.585,0-35.518-15.933-35.518-35.518v-24.598h71.038v24.598
		C194.801,245.41,178.868,261.343,159.283,261.343z"/>
	<path style="fill:#8FE5F7;" d="M352.717,261.343c19.585,0,35.518-15.933,35.518-35.518v-24.598h-71.038v24.598
		C317.199,245.41,333.133,261.343,352.717,261.343z"/>
</g>
<path style="fill:#212121;" d="M300.494,316.12c5.405-7.27,5.67-17.496-0.043-25.105c-6.961-9.267-20.097-11.147-29.362-4.188
	c-0.881,0.607-6.028,2.878-15.094,2.878c-9.067,0-14.212-2.268-15.06-2.853c-9.265-6.957-22.419-5.09-29.378,4.176
	c-5.753,7.66-5.456,17.967,0.049,25.245l0,0h88.782v-0.003l0,0L300.494,316.12z"/>
<path style="fill:#EF495B;" d="M256,308.879c-17.484,0-33.243,2.844-44.396,7.394c1.154,1.526,2.522,2.928,4.128,4.134
	c9.53,7.157,24.204,11.262,40.262,11.262s30.733-4.105,40.263-11.263c1.606-1.206,2.975-2.609,4.13-4.136
	C289.236,311.721,273.48,308.879,256,308.879z"/>
<path d="M256,41.08c4.15,0,7.515-3.365,7.515-7.515V7.515C263.515,3.365,260.15,0,256,0c-4.15,0-7.515,3.365-7.515,7.515v26.051
	C248.485,37.716,251.85,41.08,256,41.08z"/>
<path d="M338.362,57.488c0.942,0.391,1.917,0.576,2.877,0.576c2.947,0,5.744-1.745,6.944-4.637l9.983-24.062
	c1.59-3.833-0.227-8.23-4.061-9.821c-3.834-1.591-8.23,0.228-9.82,4.061l-9.983,24.062
	C332.711,51.501,334.528,55.898,338.362,57.488z"/>
<path d="M413.469,106.414c1.921,0,3.841-0.731,5.307-2.194l18.442-18.399c2.938-2.932,2.944-7.689,0.012-10.628
	c-2.932-2.938-7.69-2.944-10.628-0.012L408.16,93.58c-2.938,2.932-2.944,7.689-0.012,10.628
	C409.616,105.677,411.542,106.414,413.469,106.414z"/>
<path d="M504.494,248.776l-26.051-0.031h-0.009c-4.146,0-7.51,3.36-7.515,7.507c-0.005,4.15,3.356,7.519,7.506,7.523l26.051,0.031
	c0,0,0.006,0,0.009,0c4.146,0,7.51-3.36,7.515-7.506C512.005,252.148,508.644,248.78,504.494,248.776z"/>
<path d="M488.188,344.826l-24.039-10.04c-3.827-1.599-8.23,0.208-9.83,4.038c-1.599,3.829,0.208,8.231,4.039,9.83l24.039,10.04
	c0.946,0.396,1.928,0.583,2.893,0.583c2.941,0,5.733-1.737,6.938-4.621C493.826,350.826,492.018,346.426,488.188,344.826z"/>
<path d="M431.089,439.74c1.947,0.001,3.894-0.695,5.296-2.088c0.035-0.035,0.065-0.074,0.1-0.11c0.036-0.035,0.076-0.064,0.112-0.1
	c2.942-2.928,2.953-7.686,0.024-10.628l-18.378-18.464c-2.928-2.942-7.686-2.953-10.627-0.024c-0.03,0.03-0.055,0.063-0.085,0.094
	c-0.03,0.029-0.063,0.053-0.092,0.083c-2.945,2.925-2.962,7.682-0.037,10.628c0,0,18.335,18.463,18.357,18.485
	C427.163,439.03,429.126,439.739,431.089,439.74z"/>
<path d="M350.157,493.474c0.948,0,1.913-0.181,2.845-0.563c0.046-0.019,0.087-0.042,0.133-0.062
	c0.048-0.019,0.096-0.031,0.143-0.051c3.838-1.577,5.672-5.968,4.095-9.807l-9.899-24.097c-1.577-3.84-5.968-5.673-9.807-4.095
	c-0.039,0.016-0.075,0.037-0.114,0.054c-0.039,0.015-0.079,0.025-0.118,0.041c-3.841,1.573-5.679,5.962-4.107,9.802l9.871,24.109
	C344.391,491.713,347.196,493.474,350.157,493.474z"/>
<path d="M163.818,53.427c1.199,2.892,3.997,4.637,6.944,4.637c0.96,0,1.936-0.185,2.877-0.576c3.833-1.59,5.652-5.988,4.061-9.821
	l-9.983-24.062c-1.59-3.833-5.988-5.652-9.82-4.061c-3.833,1.59-5.652,5.988-4.061,9.821L163.818,53.427z"/>
<path d="M23.4,168.259l11.602,4.781c-2.486,3.66-3.941,8.075-3.941,12.823c0,12.615,10.263,22.878,22.878,22.878h1.764
	c-3.627,15.428-5.467,31.281-5.467,47.259c0,113.459,92.305,205.763,205.763,205.763c33.68,0,67.106-8.33,96.665-24.089
	c3.662-1.953,5.049-6.505,3.096-10.166c-1.953-3.662-6.505-5.048-10.166-3.096c-27.391,14.604-58.371,22.323-89.594,22.323
	c-105.171,0-190.734-85.563-190.734-190.734c0-16.009,1.985-31.879,5.905-47.259h20.03c0,11.403-0.727,22.928,2.147,34.079
	c7.656,29.686,35.304,51.088,65.935,51.088c28.681,0,55.147-19.324,64.474-46.475c4.313-12.557,3.608-25.636,3.608-38.692h57.269
	v17.084c0,33.826,26.174,63.447,59.728,67.572c2.771,0.341,5.563,0.51,8.355,0.51c28.586,0,55.143-19.254,64.469-46.329
	c2.408-6.991,3.614-14.36,3.614-21.752v-17.084h20.03c3.92,15.379,5.905,31.25,5.905,47.259c0,30.467-6.968,59.576-20.708,86.52
	c-13.11,25.706-32.258,48.499-55.373,65.914c-3.314,2.498-3.978,7.209-1.48,10.524c2.497,3.314,7.209,3.978,10.524,1.48
	c24.927-18.78,45.577-43.362,59.719-71.089c14.83-29.078,22.35-60.485,22.35-93.348c0-15.978-1.841-31.83-5.467-47.259h1.764
	c12.615,0,22.878-10.263,22.878-22.878c0-4.748-1.455-9.163-3.942-12.823l11.602-4.781c3.837-1.582,5.666-5.974,4.084-9.811
	c-1.581-3.838-5.974-5.666-9.811-4.084l-21.505,8.864c-1.08-0.157-2.183-0.242-3.306-0.242H439.55
	c-16.571-32.649-41.516-60.314-72.428-80.188C333.989,61.496,295.564,50.237,256,50.237s-77.989,11.259-111.122,32.561
	c-30.912,19.874-55.857,47.539-72.428,80.188H53.938c-1.123,0-2.226,0.085-3.306,0.242l-21.505-8.864
	c-3.836-1.582-8.229,0.247-9.811,4.084S19.563,166.677,23.4,168.259z M153.006,95.438C183.709,75.7,219.323,65.266,256,65.266
	S328.291,75.7,358.994,95.439c26.495,17.034,48.28,40.228,63.559,67.546H176.762c-0.437-0.079-0.887-0.12-1.347-0.12
	c-3.909,0-7.111,2.987-7.473,6.801c-0.006,0.055-0.01,0.111-0.015,0.166c-0.006,0.077-0.018,0.152-0.021,0.23
	c-0.007,0.14-0.011,0.29-0.013,0.437c0,4.15,3.365,7.515,7.515,7.515h282.652c0.131,0,0.258,0.013,0.388,0.02
	c0.893,0.421,1.869,0.65,2.867,0.695c2.706,1.239,4.595,3.967,4.595,7.134c0,4.327-3.521,7.848-7.848,7.848h-44.776
	c-4.029,0-7.515,3.49-7.515,7.515v24.599c0,5.325-0.805,10.674-2.39,15.759c-6.727,21.583-26.896,37.294-50.664,37.294
	s-43.937-15.712-50.664-37.294c-1.587-5.092-2.39-10.425-2.39-15.759v-24.599c0-4.035-3.48-7.515-7.515-7.515H219.85
	c-4.071,0-7.515,3.456-7.515,7.515v24.599c0,5.334-0.823,10.662-2.39,15.759c-6.727,21.583-26.896,37.294-50.664,37.294
	s-43.937-15.712-50.664-37.294c-1.585-5.085-2.39-10.432-2.39-15.759v-24.599c0-4.077-3.436-7.515-7.515-7.515H65.419h-11.48
	c-4.327,0-7.848-3.521-7.848-7.848c0-3.166,1.889-5.894,4.595-7.134c0.998-0.045,1.974-0.275,2.867-0.695
	c0.129-0.006,0.257-0.02,0.388-0.02h91.424c4.15,0,7.515-3.365,7.515-7.515c0-0.166-0.005-0.333-0.016-0.5
	c-0.003-0.066-0.014-0.131-0.02-0.197c-0.004-0.045-0.008-0.089-0.013-0.134c-0.36-3.815-3.563-6.803-7.473-6.803
	c-0.46,0-0.91,0.041-1.347,0.12H89.447C104.726,135.667,126.51,112.473,153.006,95.438z"/>
<path d="M57.681,338.825c-1.6-3.829-6-5.637-9.83-4.038l-24.039,10.04c-3.829,1.599-5.638,6.001-4.039,9.83
	c1.204,2.884,3.997,4.621,6.938,4.621c0.965,0,1.947-0.187,2.893-0.583l24.039-10.04C57.472,347.056,59.281,342.654,57.681,338.825z
	"/>
<path d="M161.576,493.364c2.957,0,5.761-1.756,6.954-4.661l9.899-24.097c1.577-3.839-0.257-8.229-4.095-9.806
	c-3.84-1.577-8.23,0.257-9.807,4.095l-9.899,24.097c-1.577,3.84,0.257,8.229,4.095,9.807
	C159.657,493.181,160.625,493.364,161.576,493.364z"/>
<path d="M263.515,504.485v-26.051c0-4.15-3.365-7.515-7.515-7.515c-4.15,0-7.515,3.365-7.515,7.515v26.051
	c0,4.15,3.365,7.515,7.515,7.515C260.15,512,263.515,508.635,263.515,504.485z"/>
<path d="M80.295,439.221c1.923,0,3.847-0.733,5.313-2.201l18.421-18.421c2.935-2.935,2.935-7.693,0-10.628
	c-2.935-2.935-7.693-2.935-10.627,0l-18.421,18.421c-2.935,2.935-2.935,7.693,0,10.628
	C76.448,438.486,78.371,439.221,80.295,439.221z"/>
<path d="M7.515,263.515h26.051c4.15,0,7.515-3.365,7.515-7.515c0-4.15-3.365-7.515-7.515-7.515H7.515C3.365,248.485,0,251.85,0,256
	C0,260.15,3.365,263.515,7.515,263.515z"/>
<path d="M93.401,104.029c1.467,1.468,3.391,2.201,5.313,2.201s3.847-0.733,5.313-2.201c2.935-2.935,2.935-7.693,0-10.627
	L85.608,74.98c-2.934-2.935-7.692-2.935-10.627,0c-2.935,2.935-2.935,7.693,0,10.627L93.401,104.029z"/>
<path d="M116.249,201.226v24.598c0,23.728,19.305,43.033,43.033,43.033c23.729,0,43.034-19.305,43.034-43.033v-24.598
	c0-4.15-3.365-7.515-7.515-7.515h-71.038C119.614,193.711,116.249,197.076,116.249,201.226z M131.278,208.741h56.008v17.083
	c0,15.442-12.563,28.004-28.005,28.004c-15.441,0-28.004-12.563-28.004-28.004V208.741z"/>
<path d="M352.717,268.858c23.728,0,43.033-19.305,43.033-43.033v-24.598c0-4.15-3.365-7.515-7.515-7.515h-71.038
	c-4.15,0-7.515,3.365-7.515,7.515v24.598C309.684,249.553,328.989,268.858,352.717,268.858z M324.713,208.741h56.008v17.083
	c0,15.442-12.563,28.004-28.004,28.004c-15.442,0-28.005-12.563-28.005-28.004L324.713,208.741L324.713,208.741z"/>
<path d="M283.656,275.11c-6.005,0-11.731,1.851-16.601,5.356c-0.816,0.347-4.474,1.722-11.061,1.722
	c-6.545,0-10.208-1.359-11.043-1.71c-4.871-3.501-10.598-5.347-16.602-5.347c-8.924,0-17.449,4.256-22.802,11.384
	c-9,11.982-7.094,28.812,4.002,38.532c0.082,0.072,0.164,0.145,0.247,0.217c5.056,4.329,11.34,7.293,17.598,9.426
	c19.553,6.666,43.097,6.383,62.21-1.775c4.532-1.935,8.845-4.44,12.593-7.655c0.081-0.069,0.16-0.14,0.24-0.211
	c11.108-9.724,13.022-26.562,4.021-38.547C301.021,279.262,292.71,275.11,283.656,275.11z M217.565,295.541
	c4.395-5.851,13.011-7.071,18.857-2.68c0.083,0.062,0.166,0.122,0.251,0.18c2.254,1.551,8.859,4.176,19.321,4.176
	c10.468,0,17.095-2.643,19.36-4.204c0.083-0.058,0.166-0.117,0.247-0.178c2.348-1.763,5.133-2.696,8.054-2.696
	c8.686,0,15.204,8.433,13.038,16.841c-11.585-3.639-25.743-5.616-40.694-5.616c-14.952,0-29.112,1.978-40.696,5.617
	C214.324,303.156,215.014,298.938,217.565,295.541z M252.584,324.074c-8.113-0.332-16.273-1.733-23.79-4.877
	c-0.095-0.04-0.187-0.082-0.282-0.122c8.326-1.737,17.791-2.681,27.487-2.681c9.693,0,19.153,0.943,27.479,2.679
	c-0.094,0.04-0.185,0.082-0.281,0.122C273.605,323.215,262.922,324.496,252.584,324.074z"/>
</svg>
